<svg width="32" height="32" viewBox="0 0 32 32" fill="none" xmlns="http://www.w3.org/2000/svg">
<rect width="32" height="32" rx="16" fill="white"/>
<path d="M26.8432 17.526C26.7374 17.526 26.6328 17.5039 26.5362 17.461L20.0982 14.578C19.9662 14.5187 19.8541 14.4225 19.7755 14.3009C19.6969 14.1794 19.655 14.0377 19.655 13.893C19.655 13.7483 19.6969 13.6066 19.7755 13.4851C19.8541 13.3636 19.9662 13.2673 20.0982 13.208L26.5362 10.335C26.7179 10.2543 26.9242 10.2489 27.1099 10.3199C27.2956 10.391 27.4456 10.5327 27.5272 10.714C27.6078 10.8959 27.6131 11.1022 27.5418 11.288C27.4706 11.4737 27.3287 11.6237 27.1472 11.705L22.2422 13.894L27.1482 16.091C27.305 16.1609 27.4332 16.2826 27.5111 16.4357C27.589 16.5887 27.6121 16.7639 27.5764 16.9319C27.5407 17.0999 27.4484 17.2506 27.3149 17.3587C27.1815 17.4669 27.0149 17.5259 26.8432 17.526Z" fill="#67BECE"/>
<path d="M18.0692 27.985C10.9912 27.985 4.80322 23.207 3.02422 16.365C2.97409 16.1726 3.00245 15.9681 3.10307 15.7966C3.20368 15.6251 3.3683 15.5006 3.56072 15.4505C3.75313 15.4004 3.95758 15.4287 4.12908 15.5293C4.30058 15.6299 4.42509 15.7946 4.47522 15.987C5.26 18.9944 7.0203 21.6566 9.48031 23.5563C11.9403 25.4561 14.961 26.4861 18.0692 26.485C18.2681 26.485 18.4589 26.564 18.5995 26.7047C18.7402 26.8453 18.8192 27.0361 18.8192 27.235C18.8192 27.4339 18.7402 27.6247 18.5995 27.7653C18.4589 27.906 18.2681 27.985 18.0692 27.985Z" fill="#3F54A3"/>
<path d="M15.4852 21.757C15.2863 21.757 15.0956 21.678 14.9549 21.5373C14.8142 21.3967 14.7352 21.2059 14.7352 21.007V6.75C14.7352 6.55109 14.8142 6.36032 14.9549 6.21967C15.0956 6.07902 15.2863 6 15.4852 6C15.6841 6 15.8749 6.07902 16.0156 6.21967C16.1562 6.36032 16.2352 6.55109 16.2352 6.75V21.007C16.2352 21.2059 16.1562 21.3967 16.0156 21.5373C15.8749 21.678 15.6841 21.757 15.4852 21.757Z" fill="#67BECE"/>
</svg>
